# xmcd CD database file
#
# Track frame offsets:
#	150
#	5269
#	22108
#	69051
#	87980
#	138751
#	179923
#	229694
#	243655
#	283447
#	304269
#	317363
#
# Disc length: 4374 seconds
#
# Revision: 0
# Processed by: cddbd v1.5.2PL0 Copyright (c) Steve Scherf et al.
# Submitted via: CDex 1.51
#
DISCID=a211140c
DTITLE=Abraham-Hicks - 09-08-07 - San Antonio, TX
DYEAR=2007
DGENRE=New Age
TTITLE0=Abraham-Hicks Publications
TTITLE1=The larger You is Nonphysical
TTITLE2=Law of Attraction manages all
TTITLE3=Setting Your Vibrational Tone
TTITLE4=To help child stay aligned?
TTITLE5=He focused on dream's essence
TTITLE6=Religion's role in ones family?
TTITLE7=It "all works out" for children
TTITLE8=Dad wants his own neat corner
TTITLE9=Learn to be a better Teacher?
TTITLE10=Living life in appreciation
TTITLE11=San Antonio Workshop close
EXTD=YEAR: 2007
EXTT0=
EXTT1=
EXTT2=
EXTT3=
EXTT4=
EXTT5=
EXTT6=
EXTT7=
EXTT8=
EXTT9=
EXTT10=
EXTT11=
PLAYORDER=
